# xmcd
# 
# Track frame offsets:
#     150
#     16582
#     30368
#     46214
#     57994
#     70678
#     87297
#     102850
#     117624
#     131671
#     145707
#     158178
#     175231
#     190798
#     205567
#     219374
# 
# Disc length: 3173
# 
# Revision: 7
# Processed by: cddbd v1.5.2PL0 Copyright (c) Steve Scherf et al.
# Submitted via: fre:ac v1.0.31
# 
DISCID=cf0c6310
DTITLE=Uno Kaupmees - Igavesti noor
DYEAR=2001
DGENRE=Pop
TTITLE0=Igavesti noor
TTITLE1=Julge sõber
TTITLE2=Kurbus ja viin
TTITLE3=Hilinenud kirjad
TTITLE4=Tõsiselt
TTITLE5=Millest tunned sõpra
TTITLE6=Palju käinud, palju näinud
TTITLE7=Hingeviis
TTITLE8=Ärge unustage valssi
TTITLE9=Mõtted
TTITLE10=Istu mu juurde
TTITLE11=Limbo
TTITLE12=Kes on reinu näind
TTITLE13=Kui kuulen seda viisi
TTITLE14=Sügis
TTITLE15=Üks kummaline unenägu
EXTD=
EXTT0=
EXTT1=
EXTT2=
EXTT3=
EXTT4=
EXTT5=
EXTT6=
EXTT7=
EXTT8=
EXTT9=
EXTT10=
EXTT11=
EXTT12=
EXTT13=
EXTT14=
EXTT15=
PLAYORDER=
